<svg xmlns="http://www.w3.org/2000/svg" width="1em" height="1em" viewBox="0 0 28 28">
<path fill="currentColor" d="M14.8 13H27.3C27.5 13 27.6 13 27.6 12.8V12.4C27.6 12.3 27.6 12.2 27.4 12.2C21.5 10.6 16.9 6.1 15.4 0.2L15 0H14.7C14.6 0 14.5 0.1 14.5 0.3V12.8C14.5 12.9 14.5 13 14.7 13H14.8ZM14.8 27.6H15.2L15.4 27.4C17 21.5 21.5 16.9 27.4 15.4L27.6 15.1V14.8C27.6 14.7 27.5 14.5 27.3 14.5H14.8L14.6 14.8V27.3C14.6 27.5 14.6 27.6 14.8 27.6ZM12.5 27.6H12.8C12.9 27.6 13 27.5 13 27.3V14.8C13 14.7 13 14.5 12.8 14.5H0.3C0.1 14.5 0 14.7 0 14.8V15.2C0 15.3 0 15.4 0.2 15.4C6.1 16.9 10.7 21.5 12.2 27.4L12.5 27.6ZM0.3 13H12.8C12.9 13 13 13 13 12.8V0.3C13 0.1 13 0 12.8 0H12.4C12.3 0 12.2 0 12.2 0.2C10.6 6 6 10.7 0.2 12.2L0 12.5V12.8C0 12.9 0.1 13 0.3 13Z"/>
</svg>
